<svg t="1739755218937" class="icon" viewBox="0 0 1097 1024" version="1.1" xmlns="http://www.w3.org/2000/svg" p-id="7672"
>
    <path d="M544.621714 921.234286l-23.771428 32.694857c14.189714 10.24 33.353143 10.24 47.542857 0l-23.771429-32.694857zM114.614857 608.548571l-23.917714 32.548572 0.219428 0.146286 23.698286-32.694858z m-12.068571-38.034285l38.326857 12.726857v-0.292572l-38.326857-12.434285z m49.225143-152.649143l-38.4-12.434286 38.4 12.434286zM250.294857 114.468571l-37.668571-14.628571a40.228571 40.228571 0 0 0-0.731429 2.194286l38.4 12.434285z m4.388572-6.436571l27.062857 29.988571 0.219428-0.219428-27.209143-29.769143z m11.702857-4.534857V63.049143v40.448z m11.702857 4.534857l28.086857-29.037714a40.521143 40.521143 0 0 0-0.804571-0.804572l-27.209143 29.842286z m4.461714 7.314286l-38.619428 11.702857a40.521143 40.521143 0 0 0 0.292571 0.731428l38.326857-12.434285zM381.074286 417.792l-38.4 12.507429a40.374857 40.374857 0 0 0 38.4 27.867428v-40.374857z m327.021714 0v40.374857c17.554286 0 32.987429-11.264 38.4-27.867428L708.169143 417.792z m98.523429-303.396571l-37.668572-14.628572a38.473143 38.473143 0 0 0-0.731428 2.194286l38.4 12.434286z m4.388571-6.436572l27.136 29.988572 0.146286-0.219429-27.209143-29.769143z m11.702857-4.534857v0z m11.776 4.534857l28.086857-29.037714a38.4 38.4 0 0 0-0.877714-0.804572l-27.209143 29.842286z m4.388572 7.314286l-38.619429 11.702857a47.542857 47.542857 0 0 0 0.292571 0.731429l38.4-12.434286z m98.596571 303.323428l-38.4 12.434286 0.146286 0.512 38.253714-12.946286z m51.2 151.917715l38.765714-11.337143a34.596571 34.596571 0 0 0-0.512-1.609143l-38.180571 12.946286z m-37.814857 5.266285l-430.006857 312.685715 47.542857 65.389714 429.933714-312.685714-47.542857-65.389715z m-382.537143 312.685715L138.386286 575.853714l-47.542857 65.389715L520.923429 953.929143l47.396571-65.389714zM138.532571 576a6.436571 6.436571 0 0 1 2.340572 3.218286l-76.946286 24.576c4.754286 14.921143 14.189714 28.013714 26.770286 37.302857l47.835428-65.097143z m2.340572 3.218286a6.436571 6.436571 0 0 1 0 4.022857L64.146286 557.933714a74.386286 74.386286 0 0 0-0.219429 45.860572l76.946286-24.576z m0 3.730285l49.298286-152.649142-76.8-24.868572L64.073143 558.226286l76.8 24.868571z m49.298286-152.576l98.523428-303.396571-76.8-25.014857L113.371429 405.357714l76.8 25.014857z m97.792-301.348571a23.405714 23.405714 0 0 1-6.144 8.923429L227.620571 78.043429a57.344 57.344 0 0 0-15.067428 21.869714l75.337143 29.110857z m-5.997715 8.777143a23.04 23.04 0 0 1-15.506285 6.070857V63.049143a57.782857 57.782857 0 0 0-38.985143 15.140571l54.491428 59.611429z m-15.506285 6.070857a23.04 23.04 0 0 1-15.579429-6.070857l54.491429-59.611429A57.782857 57.782857 0 0 0 266.459429 63.049143v80.822857z m-16.384-6.802286a23.405714 23.405714 0 0 1-6.144-10.093714l77.312-23.405714a57.344 57.344 0 0 0-15.067429-24.576l-56.100571 58.075428z m-5.851429-9.289143l98.450286 302.592 76.8-25.014857-98.523429-302.592-76.8 25.014857z m136.850286 330.459429H708.169143V377.563429H381.220571v80.749714z m365.421714-27.867429l98.523429-303.396571-76.8-25.014857L669.696 405.357714l76.8 25.014857z m97.792-301.348571a23.405714 23.405714 0 0 1-6.144 8.923429l-54.125714-59.904a57.344 57.344 0 0 0-15.067429 21.869714l75.337143 29.110857z m-5.997714 8.777143a23.04 23.04 0 0 1-15.506286 6.070857V63.049143a57.709714 57.709714 0 0 0-38.912 15.140571l54.418286 59.611429z m-15.506286 6.070857a23.04 23.04 0 0 1-15.506286-6.070857l54.418286-59.611429a57.782857 57.782857 0 0 0-38.912-15.140571v80.822857z m-16.384-6.802286a23.405714 23.405714 0 0 1-6.144-10.093714l77.312-23.405714a57.417143 57.417143 0 0 0-14.994286-24.576l-56.173714 58.075428z m-5.851429-9.289143l98.523429 303.396572 76.8-25.014857-98.523429-303.396572-76.8 25.014857z m98.669715 303.835429l51.2 151.917714 76.507428-25.892571-51.2-151.917714-76.507428 25.892571z m50.761143 150.235429a6.509714 6.509714 0 0 1 0.146285-4.022858l75.629715 28.16c5.558857-14.994286 6.217143-31.378286 1.682285-46.738285l-77.531428 22.674285z m0.146285-4.022858a6.436571 6.436571 0 0 1 2.486857-3.218285l43.885715 67.876571c13.458286-8.777143 23.698286-21.504 29.257143-36.498286l-75.629715-28.16z"
          fill="#000000" p-id="7673"></path>
</svg>