

<svg xmlns="http://www.w3.org/2000/svg" viewBox="0 0 200 200" width="200" height="200">
    <!-- Swagger的"S"字母 -->
    <path d="M50,100 C50,70 70,50 100,50 C130,50 150,70 150,100 C150,130 130,150 100,150 C70,150 50,130 50,100 Z" fill="none" stroke="#6BBE45" stroke-width="10" />
    <path d="M70,80 C70,60 85,50 100,50 C115,50 130,60 130,80 C130,100 115,110 100,110 C85,110 70,100 70,80 Z" fill="none" stroke="#6BBE45" stroke-width="10" />

    <!-- Apifox的狐狸尾巴 -->
    <path d="M130,100 C140,110 150,120 160,130 C170,140 180,150 190,160 C200,170 190,180 180,170 C170,160 160,150 150,140 C140,130 130,120 130,100 Z" fill="#FF6F61" />

    <!-- Apifox的狐狸头部 -->
    <circle cx="130" cy="80" r="10" fill="#FF6F61" />
    <circle cx="140" cy="75" r="5" fill="#FFFFFF" />
</svg>